# xmcd
#
# Track frame offsets:
# 150
# 13260
# 25683
# 39401
# 52013
# 66689
# 77627
# 90999
# 102657
# 115074
# 129777
# 141619
# 156640
# 169080
#
# Disc length: 2394 seconds
#
#
# Revision: 0
# Processed by: cddbd v1.5.1PL2 Copyright (c) Steve Scherf et al.
# Submitted via: FreeRIP 2.945 
#
DISCID=c209580e
DTITLE=Renilson and Ricardo - Renilson and Ricardo
DYEAR=1900
DGENRE=Country
TTITLE0=Bendito Amor
TTITLE1=Paz para o seu coração
TTITLE2=Vanerão Chorando
TTITLE3=Sozinho não dá
TTITLE4=Impossivel acreditar que perdi você
TTITLE5=O Chifrudão
TTITLE6=Esteio da nação
TTITLE7=Antes que o mal cresça
TTITLE8=O barulho da gaita
TTITLE9=Guerra de poder
TTITLE10=Caba assim que é bom
TTITLE11=Colheita do amor
TTITLE12=Gente da minha terra
TTITLE13=Bailão animado
EXTD=
EXTT0=
EXTT1=
EXTT2=
EXTT3=
EXTT4=
EXTT5=
EXTT6=
EXTT7=
EXTT8=
EXTT9=
EXTT10=
EXTT11=
EXTT12=
EXTT13=
PLAYORDER=
